<mxfile host="app.diagrams.net" agent="Mozilla/5.0 (X11; Linux x86_64; rv:135.0) Gecko/20100101 Firefox/135.0" version="26.0.16">
  <diagram name="第 1 页" id="KHf9VAxP-fDsS6pnyBGK">
    <mxGraphModel dx="551" dy="375" grid="1" gridSize="10" guides="1" tooltips="1" connect="1" arrows="1" fold="1" page="1" pageScale="1" pageWidth="827" pageHeight="1169" math="0" shadow="0">
      <root>
        <mxCell id="0" />
        <mxCell id="1" parent="0" />
        <mxCell id="2AwLt9qwl_nuBf5YqXVZ-9" style="edgeStyle=orthogonalEdgeStyle;rounded=0;orthogonalLoop=1;jettySize=auto;html=1;exitX=0.25;exitY=0;exitDx=0;exitDy=0;entryX=0.5;entryY=1;entryDx=0;entryDy=0;" edge="1" parent="1" source="2AwLt9qwl_nuBf5YqXVZ-1" target="2AwLt9qwl_nuBf5YqXVZ-4">
          <mxGeometry relative="1" as="geometry" />
        </mxCell>
        <mxCell id="2AwLt9qwl_nuBf5YqXVZ-10" style="edgeStyle=orthogonalEdgeStyle;rounded=0;orthogonalLoop=1;jettySize=auto;html=1;exitX=0.75;exitY=0;exitDx=0;exitDy=0;entryX=0.5;entryY=1;entryDx=0;entryDy=0;" edge="1" parent="1" source="2AwLt9qwl_nuBf5YqXVZ-1" target="2AwLt9qwl_nuBf5YqXVZ-5">
          <mxGeometry relative="1" as="geometry" />
        </mxCell>
        <mxCell id="2AwLt9qwl_nuBf5YqXVZ-1" value="Window&lt;br&gt;Features" style="rounded=0;whiteSpace=wrap;html=1;fillColor=#dae8fc;strokeColor=#6c8ebf;" vertex="1" parent="1">
          <mxGeometry x="280" y="280" width="80" height="40" as="geometry" />
        </mxCell>
        <mxCell id="2AwLt9qwl_nuBf5YqXVZ-8" style="edgeStyle=orthogonalEdgeStyle;rounded=0;orthogonalLoop=1;jettySize=auto;html=1;exitX=0.25;exitY=0;exitDx=0;exitDy=0;entryX=0.5;entryY=1;entryDx=0;entryDy=0;" edge="1" parent="1" source="2AwLt9qwl_nuBf5YqXVZ-2" target="2AwLt9qwl_nuBf5YqXVZ-3">
          <mxGeometry relative="1" as="geometry" />
        </mxCell>
        <mxCell id="2AwLt9qwl_nuBf5YqXVZ-2" value="Window&lt;div&gt;Input&lt;/div&gt;" style="rounded=0;whiteSpace=wrap;html=1;fillColor=#b0e3e6;strokeColor=#0e8088;" vertex="1" parent="1">
          <mxGeometry x="160" y="280" width="80" height="40" as="geometry" />
        </mxCell>
        <mxCell id="2AwLt9qwl_nuBf5YqXVZ-3" value="Q" style="rounded=0;whiteSpace=wrap;html=1;fillColor=#b1ddf0;strokeColor=#10739e;" vertex="1" parent="1">
          <mxGeometry x="160" y="200" width="40" height="40" as="geometry" />
        </mxCell>
        <mxCell id="2AwLt9qwl_nuBf5YqXVZ-12" style="edgeStyle=orthogonalEdgeStyle;rounded=0;orthogonalLoop=1;jettySize=auto;html=1;entryX=0.5;entryY=1;entryDx=0;entryDy=0;" edge="1" parent="1" source="2AwLt9qwl_nuBf5YqXVZ-4" target="2AwLt9qwl_nuBf5YqXVZ-6">
          <mxGeometry relative="1" as="geometry" />
        </mxCell>
        <mxCell id="2AwLt9qwl_nuBf5YqXVZ-4" value="K" style="rounded=0;whiteSpace=wrap;html=1;fillColor=#d0cee2;strokeColor=#56517e;" vertex="1" parent="1">
          <mxGeometry x="240" y="200" width="40" height="40" as="geometry" />
        </mxCell>
        <mxCell id="2AwLt9qwl_nuBf5YqXVZ-5" value="V" style="rounded=0;whiteSpace=wrap;html=1;fillColor=#bac8d3;strokeColor=#23445d;" vertex="1" parent="1">
          <mxGeometry x="320" y="200" width="40" height="40" as="geometry" />
        </mxCell>
        <mxCell id="2AwLt9qwl_nuBf5YqXVZ-14" style="edgeStyle=orthogonalEdgeStyle;rounded=0;orthogonalLoop=1;jettySize=auto;html=1;entryX=0.5;entryY=1;entryDx=0;entryDy=0;" edge="1" parent="1" source="2AwLt9qwl_nuBf5YqXVZ-6" target="2AwLt9qwl_nuBf5YqXVZ-7">
          <mxGeometry relative="1" as="geometry" />
        </mxCell>
        <mxCell id="2AwLt9qwl_nuBf5YqXVZ-6" value="Attention" style="rounded=0;whiteSpace=wrap;html=1;fillColor=#fad9d5;strokeColor=#ae4132;" vertex="1" parent="1">
          <mxGeometry x="160" y="120" width="200" height="40" as="geometry" />
        </mxCell>
        <mxCell id="2AwLt9qwl_nuBf5YqXVZ-7" value="Output" style="rounded=0;whiteSpace=wrap;html=1;fillColor=#b0e3e6;strokeColor=#0e8088;" vertex="1" parent="1">
          <mxGeometry x="220" y="40" width="80" height="40" as="geometry" />
        </mxCell>
        <mxCell id="2AwLt9qwl_nuBf5YqXVZ-11" style="edgeStyle=orthogonalEdgeStyle;rounded=0;orthogonalLoop=1;jettySize=auto;html=1;entryX=0.1;entryY=1;entryDx=0;entryDy=0;entryPerimeter=0;" edge="1" parent="1" source="2AwLt9qwl_nuBf5YqXVZ-3" target="2AwLt9qwl_nuBf5YqXVZ-6">
          <mxGeometry relative="1" as="geometry" />
        </mxCell>
        <mxCell id="2AwLt9qwl_nuBf5YqXVZ-13" style="edgeStyle=orthogonalEdgeStyle;rounded=0;orthogonalLoop=1;jettySize=auto;html=1;entryX=0.9;entryY=1;entryDx=0;entryDy=0;entryPerimeter=0;" edge="1" parent="1" source="2AwLt9qwl_nuBf5YqXVZ-5" target="2AwLt9qwl_nuBf5YqXVZ-6">
          <mxGeometry relative="1" as="geometry" />
        </mxCell>
      </root>
    </mxGraphModel>
  </diagram>
</mxfile>
